<?xml version="1.0" encoding="UTF-8" standalone="no"?>
<!DOCTYPE svg PUBLIC "-//W3C//DTD SVG 1.1//EN" "http://www.w3.org/Graphics/SVG/1.1/DTD/svg11.dtd">
<svg xmlns:xl="http://www.w3.org/1999/xlink" version="1.1" xmlns="http://www.w3.org/2000/svg" xmlns:dc="http://purl.org/dc/elements/1.1/" viewBox="0 950 42.11604 50.00004" width="42.11604" height="50.00004">
  <defs/>
  <metadata> Produced by OmniGraffle 7.21.3\n2023-03-28 14:10:21 +0000</metadata>
  <g id="Canvas_1" stroke-dasharray="none" fill-opacity="0.8" stroke="none" fill="none" stroke-opacity="1">
    <title>Canvas 1</title>
    <g id="Canvas_1_Layer_1">
      <title>Layer 1</title>
      <g id="Graphic_2">
        <path d="M 41.233354 988.9652 C 40.477204 990.7121 39.58217 992.32 38.54516 993.7984 C 37.131622 995.8138 35.97425 997.2088 35.0823 997.9835 C 33.699625 999.255 32.218187 999.9062 30.631814 999.9433 C 29.49296 999.9433 28.119542 999.6192 26.520824 998.9618 C 24.91686 998.3075 23.44283 997.9835 22.095029 997.9835 C 20.68149 997.9835 19.165485 998.3075 17.543928 998.9618 C 15.9199 999.6192 14.611606 999.9618 13.611327 999.9958 C 12.090075 1000.0606 10.573763 999.3908 9.060226 997.9835 C 8.094206 997.1409 6.8859085 995.6965 5.43842 993.6503 C 3.8853795 991.4651 2.6085652 988.9313 1.608286 986.0425 C .53702127 982.9222 0 979.9007 0 976.9754 C 0 973.6246 .7240528 970.7346 2.1743187 968.3127 C 3.3141 966.3674 4.830413 964.8329 6.728196 963.7064 C 8.62598 962.5799 10.676537 962.0058 12.884806 961.9691 C 14.093103 961.9691 15.677625 962.3429 17.646702 963.0774 C 19.610225 963.8144 20.87099 964.1882 21.42375 964.1882 C 21.83701 964.1882 23.237587 963.7511 25.6119 962.8799 C 27.857205 962.0719 29.75221 961.7373 31.304634 961.8691 C 35.5113 962.2086 38.6717 963.8669 40.77349 966.8544 C 37.011257 969.134 35.1502 972.3268 35.187236 976.4227 C 35.221185 979.613 36.37856 982.2679 38.653183 984.3758 C 39.684015 985.3542 40.835217 986.1104 42.11604 986.6474 C 41.838275 987.4529 41.545074 988.2245 41.233354 988.9652 Z M 31.58549 951.0003 C 31.58549 953.5009 30.671936 955.8356 28.851003 957.9967 C 26.653535 960.5657 23.99559 962.0503 21.113267 961.816 C 21.07654 961.516 21.055244 961.2003 21.055244 960.8685 C 21.055244 958.468 22.100275 955.8989 23.956086 953.7984 C 24.8826 952.7348 26.06096 951.8505 27.48993 951.145 C 28.915815 950.4501 30.26454 950.0658 31.53302 950 C 31.57006 950.3343 31.58549 950.6686 31.58549 951.0003 Z" fill="#b3b3b3"/>
      </g>
    </g>
  </g>
</svg>
