<?xml version="1.0" encoding="UTF-8" standalone="no"?>
<!DOCTYPE svg PUBLIC "-//W3C//DTD SVG 1.1//EN" "http://www.w3.org/Graphics/SVG/1.1/DTD/svg11.dtd">
<svg version="1.1" xmlns:xl="http://www.w3.org/1999/xlink" xmlns="http://www.w3.org/2000/svg" xmlns:dc="http://purl.org/dc/elements/1.1/" viewBox="-359.5 -355.5 145 145" width="145" height="145">
  <defs/>
  <metadata> Produced by OmniGraffle 7.21.3\n2023-03-31 02:23:55 +0000</metadata>
  <g id="Canvas_1" stroke="none" stroke-opacity="1" stroke-dasharray="none" fill="none" fill-opacity="1">
    <title>Canvas 1</title>
    <g id="Canvas_1_Layer_1">
      <title>Layer 1</title>
      <g id="Group_5">
        <title>men_1</title>
        <g id="Graphic_30">
          <path d="M -343.5 -355.5 L -230.5 -355.5 C -221.66344 -355.5 -214.5 -348.33656 -214.5 -339.5 L -214.5 -226.5 C -214.5 -217.66344 -221.66344 -210.5 -230.5 -210.5 L -343.5 -210.5 C -352.33656 -210.5 -359.5 -217.66344 -359.5 -226.5 L -359.5 -339.5 C -359.5 -348.33656 -352.33656 -355.5 -343.5 -355.5 Z" fill="#2596be"/>
        </g>
        <g id="Group_6">
          <g id="Graphic_29">
            <path d="M -299.743 -321.523 C -299.743 -321.523 -312.484 -323.475 -317.383 -310.94 C -320.604 -302.694 -316.375 -277.171 -319.399 -268.352 C -315.367 -276.415 -314.359 -278.935 -314.359 -278.935 C -314.359 -278.935 -315.366 -265.077 -317.635 -261.8 C -311.839 -274.149 -311.839 -270.873 -311.839 -270.873 C -311.839 -270.873 -311.838 -260.79 -313.855 -256.004 C -309.319 -263.565 -308.311 -268.353 -308.311 -268.353 C -308.311 -268.353 -306.8 -265.329 -309.572 -258.525 C -307.303 -261.8 -305.539 -267.093 -305.539 -267.093 C -305.539 -267.093 -305.162 -260.539 -304.28 -257.641 C -303.775 -261.927 -302.515 -263.186 -302.515 -263.186 C -302.515 -263.186 -300.373 -259.534 -299.744 -256.635 C -299.113 -260.793 -299.744 -263.69 -299.744 -263.69 L -297.716 -260.0765 C -296.4785 -257.8715 -294.07718 -256.5814 -291.55546 -256.76672 L -283.89144 -257.33 C -282.34195 -257.44388 -281.0021 -258.45312 -280.465 -259.911 L -279.583 -262.305 C -279.583 -262.305 -278.07 -259.532 -279.583 -256.508 C -277.566 -258.398 -276.433 -260.667 -276.433 -262.683 C -276.055 -257.138 -276.433 -253.484 -276.433 -253.484 C -273.284 -258.776 -273.031 -264.067 -273.031 -264.067 C -273.031 -264.067 -271.898 -255.879 -272.15 -255.502 C -272.402 -255.124 -269.629 -259.534 -270.007 -265.329 C -268.747 -259.785 -267.866 -258.649 -269.125 -255.752 C -265.346 -261.423 -266.731 -266.336 -266.731 -266.336 C -266.731 -266.336 -264.461 -263.439 -264.714 -260.289 C -262.321 -266.463 -263.706 -270.116 -263.706 -270.116 C -263.706 -270.116 -260.431 -267.721 -261.186 -263.312 C -258.918 -268.605 -261.073 -274.023 -261.073 -274.023 C -261.073 -274.023 -259.045 -271.754 -255.894 -271.502 C -258.288 -274.651 -257.784 -279.188 -257.784 -279.188 C -257.784 -279.188 -255.516 -278.558 -255.39 -275.66 C -254.633 -279.063 -252.492 -287.379 -255.39 -291.915 C -251.988 -290.151 -251.232 -289.394 -251.232 -289.394 C -251.232 -289.394 -253.626 -295.442 -256.776 -297.71 C -258.288 -303.884 -260.177 -310.184 -263.958 -311.822 C -259.17 -310.183 -256.02 -309.301 -254.13 -310.813 C -257.406 -311.065 -261.564 -313.962 -263.454 -317.366 C -258.666 -316.987 -256.65 -315.097 -256.65 -315.097 C -256.65 -315.097 -261.059 -320.893 -266.351 -321.523 C -271.895 -327.319 -279.393 -331.583 -285.315 -329.945 C -291.238 -328.309 -295.963 -327.949 -299.743 -321.523 Z" fill="#5a3017"/>
          </g>
          <g id="Group_12">
            <g id="Group_13">
              <g id="Group_19">
                <g id="Graphic_28">
                  <path d="M -250.126 -240.105 C -255.089 -249.501 -287 -255.397 -287 -255.397 C -287 -255.397 -318.911 -249.501 -323.874 -240.105 C -327.543 -227.067 -330.611 -210.5 -330.611 -210.5 L -243.389 -210.5 C -243.389 -210.5 -245.461 -228.264 -250.126 -240.105 Z" fill="#f1c9a5"/>
                </g>
                <g id="Graphic_27">
                  <path d="M -287 -255.397 C -287 -255.397 -255.089 -249.501 -250.126 -240.105 C -245.461 -228.263 -243.389 -210.5 -243.389 -210.5 L -271 -210.5 C -279.83656 -210.5 -287 -217.66344 -287 -226.5 Z" fill="#e4b692"/>
                </g>
                <g id="Graphic_26">
                  <path d="M -286.9995 -274.499 L -286.9995 -274.499 C -282.20153 -274.499 -278.312 -270.60947 -278.312 -265.8115 L -278.312 -254.1095 C -278.312 -249.31153 -282.20153 -245.422 -286.9995 -245.422 L -286.9995 -245.422 C -291.79747 -245.422 -295.687 -249.31153 -295.687 -254.1095 L -295.687 -265.8115 C -295.687 -270.60947 -291.79747 -274.499 -286.9995 -274.499 Z" fill="#f1c9a5"/>
                </g>
                <g id="Graphic_25">
                  <path d="M -282.656 -274.499 L -282.656 -274.499 C -280.25688 -274.499 -278.312 -272.55412 -278.312 -270.155 L -278.312 -249.766 C -278.312 -247.36688 -280.25688 -245.422 -282.656 -245.422 L -282.656 -245.422 C -285.05512 -245.422 -287 -247.36688 -287 -249.766 L -287 -270.155 C -287 -272.55412 -285.05512 -274.499 -282.656 -274.499 Z" fill="#e4b692"/>
                </g>
                <g id="Graphic_24">
                  <path d="M -295.687 -261.025 C -294.124 -256.54 -287.818 -253.968 -283.187 -253.968 C -281.511 -253.968 -279.882 -254.248 -278.312 -254.763 L -278.312 -265.8115 C -278.312 -270.60947 -282.20153 -274.499 -286.9995 -274.499 L -288.95 -274.499 C -292.67074 -274.499 -295.687 -271.48274 -295.687 -267.762 Z" fill="#ddac8c"/>
                </g>
                <g id="Graphic_23">
                  <path d="M -264.662 -292.847 C -264.662 -311.009 -274.664 -321.336 -287 -321.336 C -299.336 -321.336 -309.338 -311.009 -309.338 -292.847 C -309.338 -268.418 -299.336 -259.961 -287 -259.961 C -274.664 -259.961 -264.662 -269.437 -264.662 -292.847 Z" fill="#f1c9a5"/>
                </g>
                <g id="Graphic_22">
                  <path d="M -268.062 -280.253 C -272.111 -280.677 -274.845 -285.039 -274.16 -289.992 C -273.482 -294.949 -269.647 -298.63 -265.596 -298.208 C -261.549 -297.786 -258.82 -293.426 -259.503 -288.469 C -260.183 -283.512 -264.013 -279.834 -268.062 -280.253 Z" fill="#e4b692"/>
                </g>
                <g id="Graphic_21">
                  <path d="M -314.339 -288.469 C -315.023 -293.426 -312.293 -297.786 -308.248 -298.208 C -304.194 -298.63 -300.359 -294.949 -299.681 -289.992 C -298.997 -285.039 -301.733 -280.677 -305.781 -280.253 C -309.829 -279.834 -313.66 -283.512 -314.339 -288.469 Z" fill="#f1c9a5"/>
                </g>
                <g id="Graphic_20">
                  <path d="M -264.662 -292.847 C -264.662 -311.009 -274.664 -321.336 -287 -321.336 L -287 -259.961 C -274.664 -259.961 -264.662 -269.437 -264.662 -292.847 Z" fill="#e4b692"/>
                </g>
              </g>
              <g id="Graphic_18">
                <path d="M -250.126 -240.105 C -253.025 -245.592 -265.105 -249.882 -274.66 -252.503 L -280.83 -239.724 C -282.47524 -236.31647 -286.5713 -234.88785 -289.97884 -236.53308 C -291.37233 -237.2059 -292.49702 -238.3306 -293.1698 -239.7241 L -299.34 -252.504 C -308.896 -249.883 -320.975 -245.593 -323.874 -240.106 C -327.543 -227.067 -330.611 -210.5 -330.611 -210.5 L -243.389 -210.5 C -243.389 -210.5 -245.461 -228.264 -250.126 -240.105 Z" fill="#3a526e"/>
              </g>
              <g id="Group_16">
                <g id="Graphic_17">
                  <path d="M -271.883 -249.274 C -273.101 -253.002 -276.522 -253.38 -276.522 -253.38 L -278.3865 -248.6835 C -279.5106 -245.85202 -278.78123 -242.62088 -276.54982 -240.54683 L -271.048 -235.433 C -271.047 -235.435 -271.503 -243.418 -271.883 -249.274 Z" fill="white"/>
                </g>
              </g>
              <g id="Group_14">
                <g id="Graphic_15">
                  <path d="M -297.509 -253.381 C -297.509 -253.381 -300.931 -253.002 -302.149 -249.275 C -302.529 -243.419 -302.985 -235.435 -302.985 -235.435 L -297.48257 -240.5494 C -295.25147 -242.62316 -294.52198 -245.85374 -295.6455 -248.685 Z" fill="white"/>
                </g>
              </g>
            </g>
          </g>
          <g id="Graphic_11">
            <path d="M -305.304 -250.725 C -313.375 -248.11 -321.557 -244.491 -323.874 -240.106 C -327.543 -227.067 -330.611 -210.5 -330.611 -210.5 L -317.957 -210.5 C -310.96856 -210.5 -305.3033 -216.16525 -305.3033 -223.15369 C -305.3033 -223.1538 -305.3033 -223.1539 -305.3033 -223.154 Z" fill="#161510"/>
          </g>
          <g id="Graphic_10">
            <path d="M -269.67 -251.035 L -269.67 -223.6405 C -269.67 -216.3832 -263.7868 -210.5 -256.5295 -210.5 L -243.389 -210.5 C -243.389 -210.5 -245.461 -228.264 -250.126 -240.105 C -252.537 -244.668 -261.294 -248.399 -269.67 -251.035 Z" fill="#161510"/>
          </g>
          <g id="Graphic_9">
            <path d="M -266.605 -293.154 C -266.817 -293.477 -267.097 -293.749 -267.449 -293.972 C -268.312 -294.527 -269.612 -294.793 -271.432 -294.793 C -273.067 -294.793 -274.838 -294.583 -276.401 -294.397 C -276.764 -294.355 -277.115 -294.313 -277.445 -294.276 C -281.731 -293.802 -284.098 -292.863 -285.119 -291.234 C -285.459 -290.692 -285.623 -290.115 -285.667 -289.504 C -286.626 -289.843 -287.568 -289.695 -288.323 -289.38 C -288.352 -290.036 -288.517 -290.655 -288.88 -291.234 C -289.901 -292.863 -292.268 -293.802 -296.554 -294.276 C -296.884 -294.313 -297.235 -294.355 -297.598 -294.397 C -299.161 -294.584 -300.933 -294.793 -302.566 -294.793 C -302.931 -294.793 -303.274 -294.78 -303.598 -294.758 C -305.545 -294.631 -306.764 -294.112 -307.394 -293.154 C -307.743 -292.622 -307.872 -291.978 -307.795 -291.232 C -307.738 -290.692 -307.576 -290.1 -307.295 -289.452 C -304.818 -283.741 -301.665 -280.977 -297.375 -280.756 C -297.203 -280.747 -297.019 -280.741 -296.826 -280.741 C -293.93 -280.741 -290.473 -281.762 -289.456 -284.626 L -289.428 -284.707 C -289.043 -285.788 -288.684 -286.806 -288.483 -287.757 C -288.342 -287.863 -288.102 -288.019 -287.795 -288.148 C -287.29 -288.361 -286.61 -288.485 -285.902 -288.148 C -285.786 -288.094 -285.671 -288.03 -285.554 -287.949 C -285.365 -286.942 -284.982 -285.861 -284.573 -284.708 L -284.544 -284.627 C -283.526 -281.764 -280.069 -280.742 -277.174 -280.742 C -276.982 -280.742 -276.797 -280.748 -276.625 -280.757 C -272.335 -280.979 -269.183 -283.742 -266.704 -289.453 C -266.428 -290.089 -266.267 -290.675 -266.208 -291.209 C -266.124 -291.964 -266.253 -292.616 -266.605 -293.154 Z M -283.28 -285.075 L -283.308 -285.156 C -283.761 -286.431 -284.177 -287.605 -284.296 -288.613 L -284.278 -288.633 C -284.285 -288.639 -284.293 -288.644 -284.3 -288.653 C -284.38 -289.37 -284.307 -290.004 -283.983 -290.524 C -283.22 -291.739 -281.034 -292.532 -277.296 -292.945 C -276.963 -292.982 -276.608 -293.024 -276.241 -293.068 C -274.716 -293.249 -272.985 -293.454 -271.43 -293.454 C -269.42 -293.454 -268.173 -293.105 -267.723 -292.42 C -267.384 -291.904 -267.454 -291.084 -267.93 -289.985 C -270.214 -284.724 -272.915 -282.291 -276.69 -282.094 C -276.84 -282.086 -277.003 -282.081 -277.17 -282.081 C -278.017 -282.081 -282.269 -282.227 -283.28 -285.075 Z M -290.719 -285.075 C -291.732 -282.226 -295.984 -282.081 -296.826 -282.081 C -296.995 -282.081 -297.155 -282.086 -297.306 -282.094 C -301.081 -282.29 -303.782 -284.724 -306.066 -289.985 C -306.543 -291.084 -306.612 -291.904 -306.273 -292.42 C -305.823 -293.106 -304.576 -293.454 -302.565 -293.454 C -301.011 -293.454 -299.282 -293.249 -297.756 -293.068 C -297.389 -293.024 -297.034 -292.982 -296.701 -292.945 C -292.965 -292.532 -290.777 -291.739 -290.015 -290.524 C -289.229 -289.268 -289.906 -287.363 -290.689 -285.157 Z" fill="#26232c"/>
          </g>
          <g id="Graphic_8">
            <path d="M -283.28 -285.075 L -283.308 -285.156 C -283.761 -286.431 -284.177 -287.605 -284.296 -288.613 L -284.278 -288.633 C -284.285 -288.639 -284.293 -288.644 -284.3 -288.653 C -284.38 -289.37 -284.307 -290.004 -283.983 -290.524 C -283.22 -291.739 -281.034 -292.532 -277.296 -292.945 C -276.963 -292.982 -276.608 -293.024 -276.241 -293.068 C -274.716 -293.249 -272.985 -293.454 -271.43 -293.454 C -269.42 -293.454 -268.173 -293.105 -267.723 -292.42 C -267.384 -291.904 -267.454 -291.084 -267.93 -289.985 C -270.214 -284.724 -272.915 -282.291 -276.69 -282.094 C -276.84 -282.086 -277.003 -282.081 -277.17 -282.081 C -278.017 -282.081 -282.269 -282.227 -283.28 -285.075 Z M -290.719 -285.075 C -291.732 -282.226 -295.984 -282.081 -296.826 -282.081 C -296.995 -282.081 -297.155 -282.086 -297.306 -282.094 C -301.081 -282.29 -303.782 -284.724 -306.066 -289.985 C -306.543 -291.084 -306.612 -291.904 -306.273 -292.42 C -305.823 -293.106 -304.576 -293.454 -302.565 -293.454 C -301.011 -293.454 -299.282 -293.249 -297.756 -293.068 C -297.389 -293.024 -297.034 -292.982 -296.701 -292.945 C -292.965 -292.532 -290.777 -291.739 -290.015 -290.524 C -289.229 -289.268 -289.906 -287.363 -290.689 -285.157 Z" fill="white"/>
          </g>
          <g id="Graphic_7">
            <path d="M -272.085 -311.097 C -272.085 -311.097 -271.599 -302.602 -285.448 -292.082 C -282.046 -296.937 -282.046 -300.175 -282.046 -300.175 C -282.046 -300.175 -284.902 -294.991 -293.285 -289.832 C -292.282 -292.031 -289.457 -299.998 -289.457 -299.998 C -289.457 -299.998 -294.835 -292.791 -297.567 -288.24 C -296.473 -291.881 -295.836 -297.341 -290.824 -301.513 C -295.38 -299.314 -302.397 -292.79 -302.123 -284.522 C -303.765 -286.495 -303.309 -293.397 -303.309 -293.397 C -303.309 -293.397 -307.408 -290.211 -306.042 -277.923 C -307.499 -279.44 -309.231 -292.487 -309.231 -292.487 C -309.231 -292.487 -312.298 -290.16 -311.933 -282.778 C -315.966 -287.363 -326.559 -314.659 -290.187 -324.245 C -290.187 -324.245 -268.261 -329.057 -261.577 -312.968 C -253.891 -294.474 -259.398 -282.53 -265.038 -277.166 C -263.763 -282.02 -262.578 -285.964 -263.308 -288.164 C -264.673 -283.84 -268.866 -282.93 -268.866 -282.93 C -268.866 -282.93 -263.763 -288.923 -264.127 -292.26 C -267.956 -287.177 -272.511 -286.344 -272.966 -286.495 C -266.042 -294.155 -266.042 -297.722 -266.315 -300.453 C -269.322 -294.155 -272.694 -292.714 -272.694 -292.714 C -272.694 -292.714 -267.226 -301.894 -267.226 -305.913 C -270.962 -300.301 -271.691 -300.072 -273.241 -298.783 C -270.504 -302.349 -270.749 -308.466 -272.085 -311.097 Z" fill="#5a3017"/>
          </g>
        </g>
      </g>
    </g>
  </g>
</svg>
