<?xml version="1.0" encoding="UTF-8" standalone="no"?>
<!DOCTYPE svg PUBLIC "-//W3C//DTD SVG 1.1//EN" "http://www.w3.org/Graphics/SVG/1.1/DTD/svg11.dtd">
<svg xmlns:xl="http://www.w3.org/1999/xlink" version="1.1" xmlns="http://www.w3.org/2000/svg" xmlns:dc="http://purl.org/dc/elements/1.1/" viewBox="-6.5 -4 45 40" width="45" height="40">
    <defs/>
    <metadata> Produced by OmniGraffle 7.21.3\n2023-03-28 14:23:36 +0000</metadata>
    <g id="Canvas_1" stroke-dasharray="none" fill-opacity="1" stroke="none" fill="none" stroke-opacity="1">
        <title>Canvas 1</title>
        <g id="Canvas_1_Layer_1">
            <title>Layer 1</title>
            <g id="Group_2">
                <g id="Graphic_4">
                    <path d="M 38.5 16 C 38.5 12.833333 34.833333 10.166667 29 8.5 C 30.5 2.6666667 30 -1.8333333 27.333333 -3.5 C 26.666667 -3.8333333 26 -4 25.166667 -4 C 22.666667 -4 19.333333 -2.1666667 16 1 C 12.666667 -2.1666667 9.5 -4 6.833333 -4 C 6 -4 5.3333333 -3.8333333 4.6666667 -3.5 C 2.1666667 -1.8333333 1.6666667 2.6666667 3 8.5 C -2.6666667 10.166667 -6.5 13 -6.5 16 C -6.5 19.166667 -2.8333333 21.833333 3 23.5 C 1.6666667 29.333333 2.1666667 34 4.8333333 35.5 C 5.5 35.833333 6.166667 36 7 36 C 9.5 36 12.833333 34.166667 16.166667 31 C 19.5 34.166667 22.666667 36 25.333333 36 C 26.166667 36 26.833333 35.833333 27.5 35.5 C 30.166667 34 30.666667 29.333333 29.333333 23.5 C 34.833333 21.833333 38.5 19 38.5 16 Z M 25.166667 -1.8333333 C 25.666667 -1.8333333 26 -1.8333333 26.166667 -1.5 C 27.5 -.8333333 28 1.8333333 27.5 5.3333333 C 27.333333 6.166667 27.166667 7.166667 27 8 C 25.166667 7.5 23.333333 7.333333 21.166667 7 C 20 5.3333333 18.833333 3.8333333 17.5 2.5 C 20.5 -.33333333 23.333333 -1.8333333 25.166667 -1.8333333 Z M 22.166667 19.5 C 21.5 20.666667 20.833333 21.833333 20 22.833333 C 18.666667 23 17.333333 23 16 23 C 14.666667 23 13.333333 23 12 22.833333 C 11.333333 21.833333 10.666667 20.666667 9.833333 19.5 C 9.166667 18.333333 8.5 17.166667 8 16 C 8.5 14.833333 9.166667 13.666667 9.833333 12.5 C 10.5 11.333333 11.333333 10.166667 12 9 C 13.333333 8.833333 14.666667 8.833333 16 8.833333 C 17.333333 8.833333 18.666667 8.833333 20 9 C 20.666667 10 21.5 11.166667 22.166667 12.5 C 22.833333 13.666667 23.5 14.833333 24 16 C 23.5 17.166667 22.833333 18.333333 22.166667 19.5 Z M 25.166667 18.5 C 25.666667 19.666667 26 20.833333 26.333333 21.833333 C 25.166667 22.166667 24 22.333333 22.833333 22.5 C 23.166667 21.833333 23.666667 21.166667 24 20.5 C 24.5 20 24.833333 19.166667 25.166667 18.5 Z M 16 28 C 15.166667 27.166667 14.333333 26.166667 13.666667 25.166667 C 14.5 25.166667 15.333333 25.166667 16 25.166667 C 16.833333 25.166667 17.666667 25.166667 18.333333 25.166667 C 17.666667 26.166667 16.833333 27.166667 16 28 Z M 9.166667 22.666667 C 8 22.5 6.833333 22.333333 5.666667 22 C 6 20.833333 6.5 19.666667 6.833333 18.666667 C 7.166667 19.333333 7.5 20 8 20.666667 C 8.5 21.333333 8.833333 22 9.166667 22.666667 Z M 6.833333 13.5 C 6.333333 12.333333 6 11.166667 5.5 10 C 6.666667 9.666667 7.833333 9.5 9.166667 9.333333 C 8.666667 10 8.333333 10.666667 7.833333 11.333333 C 7.666667 12.166667 7.333333 12.833333 6.833333 13.5 Z M 16 4 C 16.833333 4.8333333 17.5 5.833333 18.333333 6.666667 C 17.5 6.666667 16.833333 6.666667 16 6.666667 C 15.166667 6.666667 14.5 6.666667 13.666667 6.666667 C 14.5 5.833333 15.333333 4.8333333 16 4 Z M 24 11.333333 C 23.5 10.666667 23.166667 10 22.666667 9.333333 C 24 9.5 25.166667 9.666667 26.333333 10 C 26 11.166667 25.5 12.333333 25 13.5 C 24.833333 12.833333 24.5 12.166667 24 11.333333 Z M 4.6666667 5.1666667 C 4.1666667 1.6666667 4.6666667 -.8333333 6 -1.6666667 C 6.333333 -1.8333333 6.666667 -2 7 -2 C 8.833333 -2 11.5 -.5 14.5 2.3333333 C 13.333333 3.6666667 12 5.1666667 10.833333 6.833333 C 8.833333 7 6.833333 7.333333 5 7.833333 C 4.8333333 7 4.6666667 6 4.6666667 5.1666667 Z M 1 20.5 C -2.1666667 19.166667 -4.3333333 17.333333 -4.3333333 16 C -4.3333333 14.5 -2.3333333 12.833333 .8333333 11.5 C 1.6666667 11.166667 2.5 10.833333 3.5 10.666667 C 4 12.5 4.6666667 14.333333 5.666667 16.166667 C 4.8333333 18 4.1666667 19.833333 3.6666667 21.5 C 2.6666667 21.166667 1.8333333 20.833333 1 20.5 Z M 5.833333 33.666667 C 4.5 33 4 30.333333 4.5 26.833333 C 4.6666667 26 4.8333333 25 5 24 C 6.833333 24.333333 8.666667 24.666667 10.666667 24.833333 C 11.833333 26.5 13.166667 28 14.333333 29.333333 C 11.333333 32.166667 8.666667 33.666667 6.833333 33.666667 C 6.5 33.833333 6.166667 33.666667 5.833333 33.666667 Z M 27.5 26.833333 C 28 30.333333 27.5 32.833333 26.166667 33.666667 C 25.833333 33.833333 25.5 34 25.166667 34 C 23.333333 34 20.666667 32.5 17.666667 29.666667 C 19 28.333333 20.166667 26.833333 21.333333 25.166667 C 23.333333 25 25.333333 24.666667 27 24.333333 C 27.166667 25 27.333333 25.833333 27.5 26.833333 Z M 31.166667 20.5 C 30.333333 20.833333 29.5 21.166667 28.5 21.333333 C 28 19.666667 27.333333 17.833333 26.5 16 C 27.333333 14.166667 28 12.333333 28.666667 10.5 C 29.5 10.833333 30.5 11 31.333333 11.333333 C 34.5 12.666667 36.5 14.333333 36.5 15.833333 C 36.333333 17.333333 34.333333 19.166667 31.166667 20.5 Z" fill="black" fill-opacity=".25"/>
                </g>
                <g id="Graphic_3">
                    <path d="M 16.166667 20.166667 C 18.5 20.166667 20.333333 18.333333 20.333333 16 C 20.333333 13.666667 18.5 11.833333 16.166667 11.833333 C 13.833333 11.833333 12 13.666667 12 16 C 12 18.333333 13.833333 20.166667 16.166667 20.166667 Z" fill="black" fill-opacity=".25"/>
                </g>
            </g>
        </g>
    </g>
</svg>
