<?xml version="1.0" encoding="UTF-8" standalone="no"?>
<!DOCTYPE svg PUBLIC "-//W3C//DTD SVG 1.1//EN" "http://www.w3.org/Graphics/SVG/1.1/DTD/svg11.dtd">
<svg version="1.1" xmlns:xl="http://www.w3.org/1999/xlink" xmlns="http://www.w3.org/2000/svg" xmlns:dc="http://purl.org/dc/elements/1.1/" viewBox="14.5 10 65.13158 82.5" width="65.13158" height="82.5">
    <defs/>
    <metadata> Produced by OmniGraffle 7.21.3\n2023-03-29 03:10:52 +0000</metadata>
    <g id="Canvas_1" stroke="none" stroke-opacity="1" stroke-dasharray="none" fill="none" fill-opacity="1">
        <title>Canvas 1</title>
        <g id="Canvas_1_Layer_1">
            <title>Layer 1</title>
            <g id="Graphic_3">
                <title></title>
                <path d="M 48.032586 29.03846 C 51.645354 29.03846 56.174033 26.52098 58.87089 23.164336 C 61.31332 20.122377 63.094264 15.874126 63.094264 11.625874 C 63.094264 11.048951 63.04338 10.472028 62.94161 10 C 58.92177 10.157343 54.08779 12.77972 51.1874 16.293706 C 48.897615 18.968532 46.81137 23.164336 46.81137 27.465035 C 46.81137 28.094405 46.91314 28.723776 46.96402 28.933566 C 47.21844 28.986014 47.625514 29.03846 48.032586 29.03846 Z M 35.311575 92.5 C 40.247327 92.5 42.43534 89.09091 48.59231 89.09091 C 54.85105 89.09091 56.22492 92.3951 61.720395 92.3951 C 67.1141 92.3951 70.72687 87.25524 74.1361 82.22028 C 77.952405 76.45105 79.52981 70.78671 79.63158 70.524475 C 79.27539 70.41958 68.94593 66.06643 68.94593 53.846154 C 68.94593 43.25175 77.08738 38.47902 77.54533 38.11189 C 72.151624 30.13986 63.95929 29.93007 61.720395 29.93007 C 55.665193 29.93007 50.72944 33.706294 47.625514 33.706294 C 44.267167 33.706294 39.840255 30.13986 34.5992 30.13986 C 24.625925 30.13986 14.5 38.636364 14.5 54.685315 C 14.5 64.65035 18.26542 75.19231 22.895868 82.01049 C 26.864823 87.77972 30.324938 92.5 35.311575 92.5 Z" fill="black"/>
            </g>
        </g>
    </g>
</svg>
